<mxfile host="65bd71144e">
    <diagram id="RfwGuJcI766h40ocQk2d" name="Página-1">
        <mxGraphModel dx="6080" dy="3935" grid="1" gridSize="10" guides="1" tooltips="1" connect="1" arrows="1" fold="1" page="1" pageScale="1" pageWidth="5000" pageHeight="5000" math="0" shadow="0">
            <root>
                <mxCell id="0"/>
                <mxCell id="1" parent="0"/>
                <mxCell id="2" value="&lt;font style=&quot;font-size: 72px;&quot;&gt;Fronecedor&lt;/font&gt;" style="rounded=0;whiteSpace=wrap;html=1;" vertex="1" parent="1">
                    <mxGeometry x="850" y="1450" width="910" height="190" as="geometry"/>
                </mxCell>
                <mxCell id="5" value="&lt;font style=&quot;font-size: 72px;&quot;&gt;O cenário é um Estabelecimento (loja)&lt;/font&gt;" style="text;strokeColor=none;align=center;fillColor=none;html=1;verticalAlign=middle;whiteSpace=wrap;rounded=0;" vertex="1" parent="1">
                    <mxGeometry x="1950" y="710" width="1180" height="60" as="geometry"/>
                </mxCell>
                <mxCell id="8" value="&lt;font style=&quot;font-size: 72px;&quot;&gt;Projeto&lt;/font&gt;" style="rounded=0;whiteSpace=wrap;html=1;" vertex="1" parent="1">
                    <mxGeometry x="3480" y="1435" width="690" height="220" as="geometry"/>
                </mxCell>
                <mxCell id="9" value="&lt;font style=&quot;font-size: 72px;&quot;&gt;produto&lt;/font&gt;" style="rounded=0;whiteSpace=wrap;html=1;" vertex="1" parent="1">
                    <mxGeometry x="2250" y="2730" width="810" height="250" as="geometry"/>
                </mxCell>
                <mxCell id="11" value="" style="endArrow=none;html=1;fontSize=72;entryX=0.5;entryY=0;entryDx=0;entryDy=0;exitX=0.5;exitY=1;exitDx=0;exitDy=0;" edge="1" parent="1" source="12" target="2">
                    <mxGeometry width="50" height="50" relative="1" as="geometry">
                        <mxPoint x="1050" y="1190" as="sourcePoint"/>
                        <mxPoint x="3340" y="1530" as="targetPoint"/>
                    </mxGeometry>
                </mxCell>
                <mxCell id="12" value="&lt;u&gt;Sname&lt;/u&gt;" style="ellipse;whiteSpace=wrap;html=1;strokeWidth=1;fontSize=72;" vertex="1" parent="1">
                    <mxGeometry x="880" y="950" width="360" height="230" as="geometry"/>
                </mxCell>
                <mxCell id="13" value="" style="endArrow=none;html=1;fontSize=72;exitX=0.25;exitY=0;exitDx=0;exitDy=0;" edge="1" parent="1" source="9" target="14">
                    <mxGeometry width="50" height="50" relative="1" as="geometry">
                        <mxPoint x="1960" y="2320" as="sourcePoint"/>
                        <mxPoint x="2050" y="2380" as="targetPoint"/>
                    </mxGeometry>
                </mxCell>
                <mxCell id="14" value="&lt;u&gt;Part_no&lt;/u&gt;" style="ellipse;whiteSpace=wrap;html=1;strokeWidth=1;fontSize=72;" vertex="1" parent="1">
                    <mxGeometry x="1720" y="2260" width="390" height="220" as="geometry"/>
                </mxCell>
                <mxCell id="15" value="" style="endArrow=none;html=1;fontSize=72;entryX=0.75;entryY=0;entryDx=0;entryDy=0;exitX=0.5;exitY=1;exitDx=0;exitDy=0;" edge="1" parent="1" source="16" target="8">
                    <mxGeometry width="50" height="50" relative="1" as="geometry">
                        <mxPoint x="4120" y="1160" as="sourcePoint"/>
                        <mxPoint x="3150" y="1410" as="targetPoint"/>
                    </mxGeometry>
                </mxCell>
                <mxCell id="16" value="&lt;u&gt;Proj_name&lt;/u&gt;" style="ellipse;whiteSpace=wrap;html=1;strokeWidth=1;fontSize=72;" vertex="1" parent="1">
                    <mxGeometry x="4010" y="1040" width="460" height="230" as="geometry"/>
                </mxCell>
                <mxCell id="17" value="SUPPLY" style="rhombus;whiteSpace=wrap;html=1;strokeWidth=1;fontSize=72;" vertex="1" parent="1">
                    <mxGeometry x="2220" y="1305" width="900" height="480" as="geometry"/>
                </mxCell>
                <mxCell id="18" value="" style="endArrow=none;html=1;fontSize=72;exitX=1;exitY=0.5;exitDx=0;exitDy=0;entryX=0;entryY=0.5;entryDx=0;entryDy=0;" edge="1" parent="1" source="2" target="17">
                    <mxGeometry width="50" height="50" relative="1" as="geometry">
                        <mxPoint x="2530" y="1460" as="sourcePoint"/>
                        <mxPoint x="2580" y="1410" as="targetPoint"/>
                    </mxGeometry>
                </mxCell>
                <mxCell id="19" value="" style="endArrow=none;html=1;fontSize=72;exitX=1;exitY=0.5;exitDx=0;exitDy=0;entryX=0;entryY=0.5;entryDx=0;entryDy=0;" edge="1" parent="1" source="17" target="8">
                    <mxGeometry width="50" height="50" relative="1" as="geometry">
                        <mxPoint x="1770" y="1555" as="sourcePoint"/>
                        <mxPoint x="2230" y="1555" as="targetPoint"/>
                    </mxGeometry>
                </mxCell>
                <mxCell id="20" value="" style="endArrow=none;html=1;fontSize=72;exitX=0.5;exitY=1;exitDx=0;exitDy=0;entryX=0.5;entryY=0;entryDx=0;entryDy=0;" edge="1" parent="1" source="17" target="9">
                    <mxGeometry width="50" height="50" relative="1" as="geometry">
                        <mxPoint x="3129.999999999999" y="1555" as="sourcePoint"/>
                        <mxPoint x="2660" y="2630" as="targetPoint"/>
                    </mxGeometry>
                </mxCell>
                <mxCell id="21" value="" style="endArrow=none;html=1;fontSize=72;exitX=1;exitY=0;exitDx=0;exitDy=0;" edge="1" parent="1" source="17" target="22">
                    <mxGeometry width="50" height="50" relative="1" as="geometry">
                        <mxPoint x="3130" y="1555" as="sourcePoint"/>
                        <mxPoint x="3250" y="1210" as="targetPoint"/>
                    </mxGeometry>
                </mxCell>
                <mxCell id="22" value="Quantity" style="ellipse;whiteSpace=wrap;html=1;strokeWidth=1;fontSize=72;" vertex="1" parent="1">
                    <mxGeometry x="3190" y="1100" width="320" height="150" as="geometry"/>
                </mxCell>
            </root>
        </mxGraphModel>
    </diagram>
</mxfile>